<?xml version="1.0" encoding="UTF-8" standalone="no"?>
<svg
   xmlns:dc="http://purl.org/dc/elements/1.1/"
   xmlns:cc="http://creativecommons.org/ns#"
   xmlns:rdf="http://www.w3.org/1999/02/22-rdf-syntax-ns#"
   xmlns:svg="http://www.w3.org/2000/svg"
   xmlns="http://www.w3.org/2000/svg"
   viewBox="0 0 1440 773.33331"
   height="773.33331"
   width="1440"
   xml:space="preserve"
   id="svg2"
   version="1.1"><metadata
     id="metadata8"><rdf:RDF><cc:Work
         rdf:about=""><dc:format>image/svg+xml</dc:format><dc:type
           rdf:resource="http://purl.org/dc/dcmitype/StillImage" /></cc:Work></rdf:RDF></metadata><defs
     id="defs6"><clipPath
       id="clipPath18"
       clipPathUnits="userSpaceOnUse"><path
         id="path16"
         d="M 0,580 H 1080 V 0 H 0 Z" /></clipPath></defs><g
     transform="matrix(1.3333333,0,0,-1.3333333,0,773.33333)"
     id="g10"><g
       id="g12"><g
         clip-path="url(#clipPath18)"
         id="g14"><g
           transform="translate(939.6108,436.1426)"
           id="g20"><path
             id="path22"
             style="fill:#000000;fill-opacity:1;fill-rule:nonzero;stroke:none"
             d="m 0,0 c 0,-11.851 -9.64,-21.491 -21.491,-21.491 h -413.201 l -53.802,-44.141 v 44.141 h -22.93 c -11.851,0 -21.491,9.64 -21.491,21.491 v 75.443 c 0,11.852 9.64,21.492 21.491,21.492 H -21.491 C -9.64,96.935 0,87.295 0,75.443 Z m -21.491,104.341 h -489.933 c -0.987,0 -1.975,-0.043 -2.941,-0.15 -0.988,-0.107 -1.932,-0.236 -2.877,-0.429 -0.945,-0.193 -1.868,-0.429 -2.77,-0.73 -0.901,-0.28 -1.781,-0.601 -2.662,-0.967 -0.859,-0.364 -1.696,-0.772 -2.512,-1.223 -0.343,-0.172 -0.687,-0.364 -1.009,-0.58 -0.15,-0.086 -0.3,-0.172 -0.451,-0.258 -0.386,-0.257 -0.751,-0.493 -1.116,-0.751 -0.794,-0.558 -1.546,-1.138 -2.297,-1.76 -0.365,-0.322 -0.73,-0.644 -1.074,-0.988 -0.343,-0.321 -0.687,-0.687 -1.03,-1.03 l -0.644,-0.623 c -0.022,-0.043 -0.065,-0.086 -0.108,-0.129 l -2.791,-2.769 -7.943,-7.944 c -0.344,-0.343 -0.687,-0.687 -0.859,-0.88 -0.344,-0.322 -0.687,-0.666 -0.902,-0.901 l -0.859,-0.86 c -0.365,-0.343 -0.708,-0.708 -0.88,-0.88 -0.344,-0.322 -0.687,-0.666 -0.902,-0.902 l -1.76,-1.76 c -5.797,-5.518 -9.017,-12.946 -9.017,-20.89 v -75.444 c 0,-15.93 12.967,-28.898 28.897,-28.898 h 15.523 v -52.364 l 63.872,52.364 h 410.538 c 7.944,0 15.373,3.221 20.762,8.888 l 1.76,1.761 c 0.344,0.322 0.687,0.666 0.88,0.88 0.365,0.323 0.687,0.666 0.881,0.881 l 1.76,1.761 c 0.365,0.343 0.708,0.687 0.902,0.88 l 1.739,1.76 c 0.365,0.344 0.708,0.687 0.88,0.88 l 4.444,4.444 c 0.344,0.322 0.687,0.666 0.838,0.838 0.364,0.344 0.708,0.687 0.901,0.901 l 1.997,1.997 c 0.064,0.065 0.129,0.108 0.171,0.15 l 0.473,0.494 c 0.365,0.344 0.73,0.687 1.073,1.053 0.344,0.364 0.666,0.729 0.988,1.094 0.257,0.301 0.494,0.579 0.73,0.88 0.386,0.451 0.752,0.945 1.073,1.439 0.28,0.407 0.559,0.816 0.816,1.224 1.031,1.653 1.889,3.413 2.576,5.281 0.28,0.73 0.516,1.482 0.709,2.233 0.193,0.623 0.344,1.245 0.473,1.868 0.193,0.944 0.321,1.889 0.429,2.877 0.107,0.965 0.15,1.953 0.15,2.941 v 75.443 c 0,15.931 -12.968,28.898 -28.898,28.898" /></g><g
           transform="translate(939.6108,511.5859)"
           id="g24"><path
             id="path26"
             style="fill:#ff6711;fill-opacity:1;fill-rule:nonzero;stroke:none"
             d="m 0,0 v -75.443 c 0,-11.851 -9.64,-21.491 -21.491,-21.491 h -413.201 l -53.802,-44.142 v 44.142 h -22.93 c -11.851,0 -21.491,9.64 -21.491,21.491 V 0 c 0,11.852 9.64,21.491 21.491,21.491 H -21.491 C -9.64,21.491 0,11.852 0,0" /></g><g
           transform="translate(938.001,415.2529)"
           id="g28"><path
             id="path30"
             style="fill:#000000;fill-opacity:1;fill-rule:nonzero;stroke:none"
             d="M 0,0 -0.473,-0.494 C 0.085,0 0.601,0.515 1.073,1.052 0.73,0.687 0.365,0.343 0,0 m -531.197,115.742 0.644,0.622 c 0.343,0.344 0.687,0.709 1.03,1.031 -0.58,-0.515 -1.138,-1.074 -1.674,-1.653" /></g><g
           transform="translate(267.4023,297.3423)"
           id="g32"><path
             id="path34"
             style="fill:#000000;fill-opacity:1;fill-rule:nonzero;stroke:none"
             d="m 0,0 c -2.362,-2.383 -5.26,-3.563 -8.695,-3.563 h -68.702 v 24.625 h 68.702 c 6.87,0 12.366,-5.497 12.366,-12.367 C 3.671,5.368 2.469,2.469 0,0 m 51.398,-20.868 c 5.796,8.824 8.717,18.7 8.717,29.563 C 60.544,38.581 35.274,63.636 5.496,63.314 H -133.755 V -81.197 h 56.358 v 35.274 h 50.303 L 0.107,-81.197 h 60.008 l -31.496,40.534 c 9.446,4.423 17.089,11.079 22.779,19.795" /></g><g
           transform="translate(483.7715,360.7632)"
           id="g36"><path
             id="path38"
             style="fill:#000000;fill-opacity:1;fill-rule:nonzero;stroke:none"
             d="m 0,0 v -74.069 c 0.301,-23.767 -19.258,-27.868 -42.273,-28.168 -23.102,0.3 -42.574,4.401 -42.359,28.168 V 0 h -56.336 v -77.633 c -0.215,-54.619 44.506,-70.313 98.695,-70.42 54.21,0.107 98.931,15.801 98.716,70.42 l 0,77.633 z" /></g><g
           transform="translate(655.4844,304.8569)"
           id="g40"><path
             id="path42"
             style="fill:#000000;fill-opacity:1;fill-rule:nonzero;stroke:none"
             d="m 0,0 c -22.672,1.073 -40.212,1.932 -40.212,8.266 0,11.507 21.512,14.105 39.031,14.105 17.648,0 32.591,-2.705 39.032,-14.105 h 59.041 c -5.389,45.172 -47.427,50.861 -98.073,51.183 -50.754,0 -98.051,-9.876 -98.051,-51.183 -0.107,-36.112 56.551,-38.903 96.87,-40.943 22.694,-1.094 40.213,-2.061 40.213,-8.394 0,-11.185 -21.491,-14.084 -39.032,-14.084 -17.626,0 -32.569,2.899 -39.031,14.084 h -59.02 c 5.367,-44.828 47.405,-50.969 98.051,-51.076 50.754,0 98.073,9.79 98.073,51.076 C 96.999,-4.831 40.319,-2.04 0,0" /></g><g
           transform="translate(754.1147,360.5483)"
           id="g44"><path
             id="path46"
             style="fill:#000000;fill-opacity:1;fill-rule:nonzero;stroke:none"
             d="m 0,0 v -45.794 h 66.985 v -98.717 h 56.336 v 98.717 h 66.984 V 0 Z" /></g><g
           transform="translate(189.3179,88.8745)"
           id="g48"><path
             id="path50"
             style="fill:#000000;fill-opacity:1;fill-rule:nonzero;stroke:none"
             d="M 0,0 V 98.695 H -56.336 V -45.816 H 112.779 V 0 Z" /></g><g
           transform="translate(397.5933,102.8511)"
           id="g52"><path
             id="path54"
             style="fill:#000000;fill-opacity:1;fill-rule:nonzero;stroke:none"
             d="M 0,0 19.88,42.681 39.675,0 Z M 53.33,84.503 H -13.655 L -91.181,-60.008 h 63.442 l 11.401,24.733 h 72.352 l 11.4,-24.733 h 63.442 z" /></g><g
           transform="translate(673.7334,187.5693)"
           id="g56"><path
             id="path58"
             style="fill:#000000;fill-opacity:1;fill-rule:nonzero;stroke:none"
             d="M 0,0 V -76.561 L -63.442,0 h -77.527 v -144.511 h 56.336 v 88.282 l 77.634,-88.282 H 56.443 L 56.443,0 Z" /></g><g
           transform="translate(848.4731,97.6763)"
           id="g60"><path
             id="path62"
             style="fill:#000000;fill-opacity:1;fill-rule:nonzero;stroke:none"
             d="M 0,0 H 45.365 C 36.863,-10.949 22.672,-12.237 0.429,-12.237 c -23.122,0.3 -42.702,4.401 -42.38,28.168 v 3.542 c -0.322,23.53 19.258,27.846 42.38,28.168 8.266,0 15.802,-0.859 22.458,-2.576 6.676,-1.718 11.829,-4.96 15.393,-9.79 H 98.158 C 91.825,79.781 50.539,93.435 0.429,93.435 -53.974,93.328 -98.502,77.634 -98.287,22.908 V 12.367 c -0.215,-54.618 44.313,-70.313 98.716,-70.527 24.497,0 50.003,5.904 66.77,22.478 L 69.991,-58.16 H 98.158 V 24.733 L 0,24.733 Z" /></g><g
           transform="translate(487.7759,490.9287)"
           id="g64"><path
             id="path66"
             style="fill:#ffffff;fill-opacity:1;fill-rule:nonzero;stroke:none"
             d="m 0,0 0.506,-11.305 -10.539,3.918 -1.633,-5.046 10.849,-3.014 -7.018,-8.847 4.286,-3.101 6.253,9.382 6.259,-9.382 4.287,3.101 -7.019,8.847 10.85,3.014 -1.634,5.046 L 4.901,-11.305 5.414,0 Z m -33.112,-39.994 -4.345,1.945 24.07,49.629 4.287,-2.053 z" /></g><g
           transform="translate(550.6831,483.0068)"
           id="g68"><path
             id="path70"
             style="fill:#ffffff;fill-opacity:1;fill-rule:nonzero;stroke:none"
             d="M 0,0 C -2.111,0 -3.86,-0.752 -5.262,-2.255 -6.657,-3.759 -7.459,-6.079 -7.669,-9.216 H 7.098 C 7.04,-6.209 6.39,-3.918 5.139,-2.349 3.889,-0.781 2.176,0 0,0 m -7.669,-13.163 c 0.115,-2.175 0.556,-3.954 1.323,-5.334 0.773,-1.388 1.778,-2.4 3.021,-3.05 1.236,-0.644 2.609,-0.969 4.113,-0.969 1.482,0 2.848,0.224 4.084,0.672 1.243,0.456 2.501,1.114 3.78,1.973 l 2.451,-3.404 c -1.395,-1.113 -3,-1.988 -4.822,-2.638 -1.821,-0.651 -3.708,-0.969 -5.667,-0.969 -2.963,0 -5.486,0.651 -7.56,1.959 -2.082,1.301 -3.658,3.123 -4.742,5.45 -1.077,2.327 -1.619,5.038 -1.619,8.118 0,2.984 0.542,5.652 1.619,8.001 1.084,2.349 2.609,4.2 4.583,5.551 1.973,1.359 4.322,2.032 7.047,2.032 2.552,0 4.756,-0.593 6.607,-1.779 1.85,-1.178 3.274,-2.869 4.271,-5.052 0.998,-2.19 1.497,-4.807 1.497,-7.85 0,-0.506 -0.015,-0.998 -0.029,-1.467 -0.022,-0.47 -0.051,-0.882 -0.087,-1.244 z" /></g><g
           transform="translate(566.8311,456.8262)"
           id="g72"><path
             id="path74"
             style="fill:#ffffff;fill-opacity:1;fill-rule:nonzero;stroke:none"
             d="m 0,0 v 29.708 h 4.647 l 0.398,-4.004 c 1.222,1.525 2.711,2.689 4.467,3.491 1.757,0.809 3.506,1.214 5.255,1.214 2.855,0 4.959,-0.773 6.31,-2.327 1.352,-1.547 2.031,-3.701 2.031,-6.462 V 0 h -5.414 v 18.294 c 0,1.873 -0.108,3.405 -0.318,4.576 -0.216,1.178 -0.665,2.024 -1.344,2.551 -0.672,0.528 -1.699,0.788 -3.072,0.788 -1.07,0 -2.082,-0.231 -3.043,-0.701 C 8.963,25.039 8.103,24.446 7.336,23.73 6.578,23.015 5.934,22.277 5.406,21.504 V 0 Z" /></g><g
           transform="translate(635.2314,483.0068)"
           id="g76"><path
             id="path78"
             style="fill:#ffffff;fill-opacity:1;fill-rule:nonzero;stroke:none"
             d="M 0,0 C -2.111,0 -3.86,-0.752 -5.262,-2.255 -6.657,-3.759 -7.459,-6.079 -7.669,-9.216 H 7.098 C 7.04,-6.209 6.39,-3.918 5.139,-2.349 3.889,-0.781 2.176,0 0,0 m -7.669,-13.163 c 0.115,-2.175 0.556,-3.954 1.322,-5.334 0.774,-1.388 1.779,-2.4 3.022,-3.05 1.236,-0.644 2.609,-0.969 4.113,-0.969 1.482,0 2.848,0.224 4.084,0.672 1.243,0.456 2.501,1.114 3.78,1.973 l 2.451,-3.404 c -1.395,-1.113 -3,-1.988 -4.822,-2.638 -1.822,-0.651 -3.708,-0.969 -5.667,-0.969 -2.963,0 -5.486,0.651 -7.56,1.959 -2.082,1.301 -3.658,3.123 -4.742,5.45 -1.077,2.327 -1.619,5.038 -1.619,8.118 0,2.984 0.542,5.652 1.619,8.001 1.084,2.349 2.609,4.2 4.583,5.551 1.973,1.359 4.322,2.032 7.047,2.032 2.552,0 4.756,-0.593 6.607,-1.779 1.85,-1.178 3.274,-2.869 4.271,-5.052 0.998,-2.19 1.497,-4.807 1.497,-7.85 0,-0.506 -0.015,-0.998 -0.029,-1.467 -0.022,-0.47 -0.051,-0.882 -0.087,-1.244 z" /></g><g
           transform="translate(661.7734,460.4331)"
           id="g80"><path
             id="path82"
             style="fill:#ffffff;fill-opacity:1;fill-rule:nonzero;stroke:none"
             d="M 0,0 C 2.161,0 3.867,0.397 5.117,1.186 6.368,1.973 6.99,3.043 6.99,4.395 6.99,5.262 6.831,6.006 6.498,6.621 6.173,7.243 5.493,7.807 4.467,8.313 3.448,8.818 1.901,9.339 -0.167,9.866 c -2.009,0.507 -3.765,1.099 -5.269,1.771 -1.503,0.68 -2.66,1.562 -3.484,2.653 -0.816,1.091 -1.221,2.501 -1.221,4.229 0,1.691 0.47,3.151 1.424,4.395 0.946,1.243 2.291,2.197 4.026,2.876 1.742,0.672 3.766,1.012 6.079,1.012 2.436,0 4.568,-0.325 6.382,-0.969 1.814,-0.65 3.347,-1.445 4.605,-2.385 l -2.313,-3.52 c -1.143,0.766 -2.4,1.395 -3.759,1.886 -1.366,0.492 -2.964,0.731 -4.807,0.731 -2.197,0 -3.759,-0.333 -4.691,-0.998 C -4.127,20.882 -4.59,20 -4.59,18.909 c 0,-0.803 0.231,-1.474 0.687,-2.01 0.462,-0.534 1.257,-1.033 2.385,-1.482 1.127,-0.455 2.689,-0.946 4.677,-1.496 1.937,-0.527 3.628,-1.142 5.074,-1.857 1.445,-0.716 2.566,-1.648 3.368,-2.805 0.795,-1.156 1.2,-2.674 1.2,-4.553 0,-2.125 -0.614,-3.846 -1.836,-5.169 C 9.744,-1.792 8.161,-2.761 6.216,-3.383 4.271,-4.004 2.205,-4.308 0,-4.308 c -2.704,0 -5.024,0.39 -6.976,1.178 -1.944,0.788 -3.57,1.756 -4.886,2.906 l 2.986,3.44 C -7.713,2.255 -6.375,1.482 -4.872,0.889 -3.369,0.296 -1.742,0 0,0" /></g><g
           transform="translate(691.9873,482.978)"
           id="g84"><path
             id="path86"
             style="fill:#ffffff;fill-opacity:1;fill-rule:nonzero;stroke:none"
             d="M 0,0 C -1.54,0 -2.898,-0.463 -4.084,-1.395 -5.27,-2.32 -6.245,-3.383 -7.019,-4.561 v -14.377 c 0.752,-1.106 1.677,-1.974 2.762,-2.602 1.091,-0.636 2.305,-0.947 3.635,-0.947 2.335,0 4.091,0.904 5.277,2.717 1.178,1.815 1.771,4.648 1.771,8.501 0,2.573 -0.232,4.691 -0.701,6.353 -0.47,1.663 -1.179,2.899 -2.133,3.708 C 2.646,-0.405 1.445,0 0,0 m 1.38,4.257 c 2.632,0 4.735,-0.643 6.318,-1.93 1.575,-1.286 2.711,-3.094 3.405,-5.413 0.701,-2.321 1.047,-5.046 1.047,-8.183 0,-3.007 -0.426,-5.689 -1.272,-8.038 -0.845,-2.342 -2.11,-4.192 -3.802,-5.537 -1.691,-1.344 -3.816,-2.009 -6.368,-2.009 -3.216,0 -5.79,1.121 -7.727,3.375 v -14.058 l -5.406,-0.651 V 3.556 h 4.647 l 0.398,-4.004 c 1.106,1.525 2.414,2.689 3.918,3.491 1.503,0.81 3.115,1.214 4.842,1.214" /></g><g
           transform="translate(717.0981,460.1802)"
           id="g88"><path
             id="path90"
             style="fill:#ffffff;fill-opacity:1;fill-rule:nonzero;stroke:none"
             d="m 0,0 c 1.395,0 2.725,0.354 4.004,1.07 1.28,0.715 2.328,1.713 3.159,2.985 v 7.192 H 3.216 c -3.137,0 -5.363,-0.535 -6.678,-1.598 -1.316,-1.055 -1.974,-2.508 -1.974,-4.351 0,-1.727 0.448,-3.043 1.352,-3.946 C -3.181,0.448 -1.822,0 0,0 m 12.541,3.469 c 0,-1.185 0.188,-2.045 0.563,-2.58 0.376,-0.535 0.969,-0.94 1.779,-1.2 L 13.61,-4.034 C 12.259,-3.86 11.088,-3.455 10.09,-2.819 9.093,-2.183 8.355,-1.2 7.864,0.116 6.794,-1.258 5.442,-2.299 3.809,-3 2.168,-3.708 0.397,-4.055 -1.518,-4.055 c -2.993,0 -5.349,0.838 -7.077,2.53 -1.727,1.691 -2.594,3.918 -2.594,6.686 0,3.093 1.207,5.472 3.621,7.127 2.414,1.655 5.891,2.479 10.416,2.479 h 4.315 v 2.255 c 0,2.046 -0.607,3.506 -1.822,4.366 -1.214,0.867 -2.898,1.301 -5.059,1.301 -0.976,0 -2.14,-0.123 -3.491,-0.368 C -4.561,22.075 -6,21.692 -7.525,21.164 l -1.38,3.947 c 1.843,0.694 3.607,1.192 5.283,1.496 1.685,0.296 3.26,0.448 4.721,0.448 3.838,0 6.7,-0.868 8.601,-2.609 1.894,-1.735 2.841,-4.113 2.841,-7.142 z" /></g><g
           transform="translate(750.7236,493.7187)"
           id="g92"><path
             id="path94"
             style="fill:#ffffff;fill-opacity:1;fill-rule:nonzero;stroke:none"
             d="m 0,0 c -1.019,0 -1.887,0.224 -2.609,0.672 -0.724,0.456 -1.388,0.904 -2.003,1.359 -0.607,0.448 -1.25,0.673 -1.93,0.673 -0.636,0 -1.185,-0.217 -1.633,-0.658 C -8.624,1.598 -9.079,0.954 -9.527,0.108 l -3.245,1.642 c 0.657,1.387 1.503,2.573 2.537,3.563 1.033,0.983 2.269,1.481 3.693,1.481 1.056,0 1.938,-0.223 2.653,-0.664 C -3.181,5.689 -2.523,5.241 -1.93,4.792 -1.337,4.337 -0.694,4.113 0,4.113 c 0.563,0 1.077,0.202 1.532,0.607 0.463,0.405 0.947,1.019 1.453,1.843 L 6.202,4.958 C 5.464,3.325 4.575,2.089 3.52,1.25 2.472,0.419 1.294,0 0,0 m -14.796,-36.893 v 29.708 h 4.648 l 0.397,-4.004 c 1.222,1.525 2.71,2.689 4.467,3.491 1.757,0.81 3.506,1.215 5.255,1.215 2.855,0 4.959,-0.774 6.31,-2.328 1.352,-1.547 2.032,-3.701 2.032,-6.462 v -21.62 H 2.898 v 18.295 c 0,1.872 -0.108,3.405 -0.317,4.576 -0.218,1.178 -0.665,2.023 -1.345,2.551 -0.673,0.528 -1.699,0.788 -3.072,0.788 -1.07,0 -2.082,-0.232 -3.043,-0.701 -0.954,-0.47 -1.814,-1.063 -2.58,-1.779 -0.76,-0.715 -1.403,-1.452 -1.931,-2.226 v -21.504 z" /></g><g
           transform="translate(775.6899,482.9272)"
           id="g96"><path
             id="path98"
             style="fill:#ffffff;fill-opacity:1;fill-rule:nonzero;stroke:none"
             d="m 0,0 c -2.443,0 -4.279,-0.918 -5.522,-2.754 -1.244,-1.829 -1.858,-4.669 -1.858,-8.522 0,-3.816 0.607,-6.636 1.829,-8.472 1.221,-1.828 3.057,-2.746 5.493,-2.746 2.443,0 4.279,0.918 5.501,2.746 1.221,1.836 1.828,4.677 1.828,8.53 0,3.831 -0.607,6.657 -1.814,8.478 C 4.243,-0.918 2.429,0 0,0 m 0,4.308 c 2.84,0 5.219,-0.636 7.148,-1.915 1.923,-1.28 3.383,-3.08 4.366,-5.4 0.984,-2.32 1.482,-5.06 1.482,-8.211 0,-3.065 -0.506,-5.768 -1.511,-8.103 -1.005,-2.342 -2.472,-4.171 -4.409,-5.501 -1.937,-1.323 -4.315,-1.98 -7.134,-1.98 -2.812,0 -5.197,0.636 -7.142,1.915 -1.944,1.272 -3.411,3.079 -4.409,5.407 -0.997,2.334 -1.496,5.067 -1.496,8.204 0,3.079 0.506,5.79 1.511,8.131 1.005,2.335 2.486,4.164 4.438,5.479 C -5.205,3.65 -2.819,4.308 0,4.308" /></g><g
           transform="translate(804.4941,498.4824)"
           id="g100"><path
             id="path102"
             style="fill:#ffffff;fill-opacity:1;fill-rule:nonzero;stroke:none"
             d="m 0,0 v -33.987 c 0,-1.431 0.441,-2.443 1.323,-3.036 0.882,-0.585 2.024,-0.882 3.411,-0.882 0.882,0 1.721,0.094 2.509,0.282 0.788,0.188 1.575,0.427 2.37,0.73 l 1.41,-3.86 c -0.831,-0.412 -1.865,-0.788 -3.101,-1.113 -1.243,-0.332 -2.646,-0.491 -4.199,-0.491 -2.784,0 -5.002,0.773 -6.65,2.335 -1.656,1.561 -2.487,3.7 -2.487,6.425 v 29.484 h -9.043 V 0 Z" /></g><g
           transform="translate(897.8608,500.4556)"
           id="g104"><path
             id="path106"
             style="fill:#ffffff;fill-opacity:1;fill-rule:nonzero;stroke:none"
             d="m 0,0 -4.279,2.053 -24.07,-49.629 4.337,-1.945 z m -38.577,-9.527 -0.513,-11.305 10.546,3.918 1.633,-5.045 -10.849,-3.015 7.018,-8.847 -4.286,-3.1 -6.26,9.381 -6.252,-9.381 -4.286,3.1 7.018,8.847 -10.849,3.015 1.634,5.045 10.538,-3.918 -0.506,11.305 z" /></g></g></g></g></svg>