<svg class="center" role="img" aria-labelledby="desc" 
 viewBox="0.00 400.00 1000.00 500.00" xmlns="http://www.w3.org/2000/svg" xmlns:xlink="http://www.w3.org/1999/xlink">
<g  class="graph" transform="scale(4.1667 4.1667) rotate(0) translate(4 238)">
<title>Dos tablas: la primera tabla contiene la representaci贸n de s1 en la pila, que consta de su longitud (5), capacidad (5) y un puntero al primer valor en la segunda tabla. La segunda tabla contiene la representaci贸n de los datos en el heap, byte por byte.</title>
<desc >Dos tablas: la primera tabla contiene la representaci贸n de s1 en la pila, que consta de su longitud (5), capacidad (5) y un puntero al primer valor en la segunda tabla. La segunda tabla contiene la representaci贸n de los datos en el heap, byte por byte.</desc>
<polygon fill="transparent" stroke="transparent" points="-4,4 -4,-152 233,-152 233,4 -4,4"/>
<!-- table0 -->
<g  class="node">
<polyline fill="none" stroke="var(--fg)" points="0,-124 96,-124 "/>
<text text-anchor="start" x="45.7759" y="-129.8" font-family="Times,serif" font-size="14.00" fill="var(--fg)">s1</text>
<polygon fill="none" stroke="var(--fg)" points="0,-104 0,-124 60,-124 60,-104 8,-104"/>
<text text-anchor="start" x="2.8413" y="-109.8" font-family="Times,serif" font-size="14.00" fill="currentColor">nombre</text>
<polygon fill="none" stroke="var(--fg)" points="60,-104 60,-124 96,-124 96,-104 60,-104"/>
<text text-anchor="start" x="62.8413" y="-109.8" font-family="Times,serif" font-size="14.00" fill="var(--fg)">valor</text>
<polygon fill="none" stroke="var(--fg)" points="0,-84 0,-104 60,-104 60,-84 8,-84"/>
<text text-anchor="start" x="2.2241" y="-89.8" font-family="Times,serif" font-size="14.00" fill="var(--fg)">ptr</text>
<polygon fill="none" stroke="var(--fg)" points="60,-84 60,-104 96,-104 96,-84 60,-84"/>
<polygon fill="none" stroke="var(--fg)" points="0,-64 0,-84 60,-84 60,-64 8,-64"/>
<text text-anchor="start" x="2.4482" y="-69.8" font-family="Times,serif" font-size="14.00" fill="var(--fg)">longitud</text>
<polygon fill="none" stroke="var(--fg)" points="60,-64 60,-84 96,-84 96,-64 60,-64"/>
<text text-anchor="start" x="74.5" y="-69.8" font-family="Times,serif" font-size="14.00" fill="var(--fg)">4</text>
<polygon fill="none" stroke="var(--fg)" points="0,-44 0,-64 60,-64 60,-44 8,-44"/>
<text text-anchor="start" x="2.6826" y="-49.8" font-family="Times,serif" font-size="14.00" fill="var(--fg)">capacidad</text>
<polygon fill="none" stroke="var(--fg)" points="60,-44 60,-64 96,-64 96,-44 60,-44"/>
<text text-anchor="start" x="74.5" y="-49.8" font-family="Times,serif" font-size="14.00" fill="var(--fg)">4</text>
</g>
<!-- table1 -->
<g  class="node">
<polygon fill="none" stroke="var(--fg)" points="140.5,-104 140.5,-124 185.5,-124 185.5,-104 148.5,-104"/>
<text text-anchor="start" x="143.4482" y="-109.8" font-family="Times,serif" font-size="14.00" fill="var(--fg)">indice</text>
<polygon fill="none" stroke="var(--fg)" points="185.5,-104 185.5,-124 221.5,-124 221.5,-104 185.5,-104"/>
<text text-anchor="start" x="188.3413" y="-109.8" font-family="Times,serif" font-size="14.00" fill="var(--fg)">valor</text>
<polygon fill="none" stroke="var(--fg)" points="140.5,-84 140.5,-104 185.5,-104 185.5,-84 148.5,-84"/>
<text text-anchor="start" x="155.5" y="-89.8" font-family="Times,serif" font-size="14.00" fill="var(--fg)">0</text>
<polygon fill="none" stroke="var(--fg)" points="185.5,-84 185.5,-104 221.5,-104 221.5,-84 185.5,-84"/>
<text text-anchor="start" x="200" y="-89.8" font-family="Times,serif" font-size="14.00" fill="var(--fg)">h</text>
<polygon fill="none" stroke="var(--fg)" points="140.5,-64 140.5,-84 185.5,-84 185.5,-64 148.5,-64"/>
<text text-anchor="start" x="155.5" y="-69.8" font-family="Times,serif" font-size="14.00" fill="var(--fg)">1</text>
<polygon fill="none" stroke="var(--fg)" points="185.5,-64 185.5,-84 221.5,-84 221.5,-64 185.5,-64"/>
<text text-anchor="start" x="200.3931" y="-69.8" font-family="Times,serif" font-size="14.00" fill="var(--fg)">o</text>
<polygon fill="none" stroke="var(--fg)" points="140.5,-44 140.5,-64 185.5,-64 185.5,-44 148.5,-44"/>
<text text-anchor="start" x="155.5" y="-49.8" font-family="Times,serif" font-size="14.00" fill="var(--fg)">2</text>
<polygon fill="none" stroke="var(--fg)" points="185.5,-44 185.5,-64 221.5,-64 221.5,-44 185.5,-44"/>
<text text-anchor="start" x="201.5552" y="-49.8" font-family="Times,serif" font-size="14.00" fill="var(--fg)">l</text>
<polygon fill="none" stroke="var(--fg)" points="140.5,-24 140.5,-44 185.5,-44 185.5,-24 148.5,-24"/>
<text text-anchor="start" x="155.5" y="-29.8" font-family="Times,serif" font-size="14.00" fill="var(--fg)">3</text>
<polygon fill="none" stroke="var(--fg)" points="185.5,-24 185.5,-44 221.5,-44 221.5,-24 185.5,-24"/>
<text text-anchor="start" x="201.5552" y="-29.8" font-family="Times,serif" font-size="14.00" fill="var(--fg)">a</text>
</g>
<!-- table0&#45;&gt;table1 -->
<g  class="edge">
<path fill="none" stroke="var(--fg)" d="M78,-94C78,-94 109.3406,-94 130.3797,-94"/>
<polygon fill="var(--fg)" stroke="var(--fg)" points="130.5,-97.5001 140.5,-94 130.5,-90.5001 130.5,-97.5001"/>
</g>
</g>
</svg>
