<svg class="center" role="img" aria-labelledby="desc" 
 viewBox="0.00 0.00 1000.00 1000.00" xmlns="http://www.w3.org/2000/svg" xmlns:xlink="http://www.w3.org/1999/xlink">
<g  class="graph" transform="scale(4.1667 4.1667) rotate(0) translate(4 238)">
<title>Tres tablas: tablas s1 y s2 que representan esas cadenas en la
pila, respectivamente, y ambas apuntando a los mismos datos de cadena en el
heap.</title>
<desc >Tres tablas: tablas s1 y s2 que representan esas cadenas en la
pila, respectivamente, y ambas apuntando a los mismos datos de cadena en el
heap.</desc>
<polygon fill="transparent" stroke="transparent" points="-4,4 -4,-238 233,-238 233,4 -4,4"/>
<!-- table0 -->
<g  class="node">
<title>table0</title>
<polyline fill="none" stroke="var(--fg)" points="0,-210 96,-210 "/>
<text text-anchor="start" x="45.7759" y="-215.8" font-family="Times,serif" font-size="14.00" fill="var(--fg)">s1</text>
<polygon fill="none" stroke="var(--fg)" points="0,-190 0,-210 60,-210 60,-190 8,-190"/>
<text text-anchor="start" x="8.8413" y="-195.8" font-family="Times,serif" font-size="14.00" fill="var(--fg)">nombre</text>
<polygon fill="none" stroke="var(--fg)" points="60,-190 60,-210 96,-210 96,-190 60,-190"/>
<text text-anchor="start" x="62.8413" y="-195.8" font-family="Times,serif" font-size="14.00" fill="var(--fg)">valor</text>
<polygon fill="none" stroke="var(--fg)" points="0,-170 0,-190 60,-190 60,-170 8,-170"/>
<text text-anchor="start" x="2.2241" y="-175.8" font-family="Times,serif" font-size="14.00" fill="var(--fg)">puntero</text>
<polygon fill="none" stroke="var(--fg)" points="60,-170 60,-190 96,-190 96,-170 60,-170"/>
<polygon fill="none" stroke="var(--fg)" points="0,-150 0,-170 60,-170 60,-150 8,-150"/>
<text text-anchor="start" x="2.4482" y="-155.8" font-family="Times,serif" font-size="14.00" fill="var(--fg)">longitud</text>
<polygon fill="none" stroke="var(--fg)" points="60,-150 60,-170 96,-170 96,-150 60,-150"/>
<text text-anchor="start" x="74.5" y="-155.8" font-family="Times,serif" font-size="14.00" fill="var(--fg)">4</text>
<polygon fill="none" stroke="var(--fg)" points="0,-130 0,-150 60,-150 60,-130 8,-130"/>
<text text-anchor="start" x="2.6826" y="-135.8" font-family="Times,serif" font-size="14.00" fill="var(--fg)">capacidad</text>
<polygon fill="none" stroke="var(--fg)" points="60,-130 60,-150 96,-150 96,-130 60,-130"/>
<text text-anchor="start" x="74.5" y="-135.8" font-family="Times,serif" font-size="14.00" fill="var(--fg)">4</text>
</g>
<!-- table1 -->
<g  class="node">
<title>table1</title>
<polygon fill="none" stroke="currentColor" points="140.5,-127 140.5,-147 185.5,-147 185.5,-127 148.5,-127"/>
<text text-anchor="start" x="145.4482" y="-132.8" font-family="Times,serif" font-size="14.00" fill="var(--fg)">indice</text>
<polygon fill="none" stroke="var(--fg)" points="185.5,-127 185.5,-147 221.5,-147 221.5,-127 185.5,-127"/>
<text text-anchor="start" x="188.3413" y="-132.8" font-family="Times,serif" font-size="14.00" fill="var(--fg)">valor</text>
<polygon fill="none" stroke="var(--fg)" points="140.5,-107 140.5,-127 185.5,-127 185.5,-107 148.5,-107"/>
<text text-anchor="start" x="158.5" y="-112.8" font-family="Times,serif" font-size="14.00" fill="var(--fg)">0</text>
<polygon fill="none" stroke="var(--fg)" points="185.5,-107 185.5,-127 221.5,-127 221.5,-107 185.5,-107"/>
<text text-anchor="start" x="200" y="-112.8" font-family="Times,serif" font-size="14.00" fill="var(--fg)">h</text>
<polygon fill="none" stroke="var(--fg)" points="140.5,-87 140.5,-107 185.5,-107 185.5,-87 148.5,-87"/>
<text text-anchor="start" x="158.5" y="-92.8" font-family="Times,serif" font-size="14.00" fill="var(--fg)">1</text>
<polygon fill="none" stroke="var(--fg)" points="185.5,-87 185.5,-107 221.5,-107 221.5,-87 185.5,-87"/>
<text text-anchor="start" x="200.3931" y="-92.8" font-family="Times,serif" font-size="14.00" fill="var(--fg)">o</text>
<polygon fill="none" stroke="var(--fg)" points="140.5,-67 140.5,-87 185.5,-87 185.5,-67 148.5,-67"/>
<text text-anchor="start" x="158.5" y="-72.8" font-family="Times,serif" font-size="14.00" fill="var(--fg)">2</text>
<polygon fill="none" stroke="var(--fg)" points="185.5,-67 185.5,-87 221.5,-87 221.5,-67 185.5,-67"/>
<text text-anchor="start" x="201.5552" y="-72.8" font-family="Times,serif" font-size="14.00" fill="var(--fg)">l</text>
<polygon fill="none" stroke="var(--fg)" points="140.5,-47 140.5,-67 185.5,-67 185.5,-47 148.5,-47"/>
<text text-anchor="start" x="158.5" y="-52.8" font-family="Times,serif" font-size="14.00" fill="var(--fg)">3</text>
<polygon fill="none" stroke="var(--fg)" points="185.5,-47 185.5,-67 221.5,-67 221.5,-47 185.5,-47"/>
<text text-anchor="start" x="201.5552" y="-52.8" font-family="Times,serif" font-size="14.00" fill="var(--fg)">a</text>
</g>
<!-- table0&#45;&gt;table1 -->
<g  class="edge">
<title>table0:c&#45;&gt;table1:pointee</title>
<path fill="none" stroke="var(--fg)" d="M78,-180C78,-180 101.9982,-126.912 130.4405,-118.2023"/>
<polygon fill="var(--fg)" stroke="var(--fg)" points="130.986,-121.6621 140.5,-117 130.1553,-114.7115 130.986,-121.6621"/>
</g>
<!-- table3 -->
<g  class="node">
<title>table3</title>
<polyline fill="none" stroke="var(--fg)" points="0,-84 96,-84 "/>
<text text-anchor="start" x="45.7759" y="-89.8" font-family="Times,serif" font-size="14.00" fill="var(--fg)">s2</text>
<polygon fill="none" stroke="var(--fg)" points="0,-64 0,-84 60,-84 60,-64 8,-64"/>
<text text-anchor="start" x="8.8413" y="-69.8" font-family="Times,serif" font-size="14.00" fill="var(--fg)">nombre</text>
<polygon fill="none" stroke="var(--fg)" points="60,-64 60,-84 96,-84 96,-64 60,-64"/>
<text text-anchor="start" x="62.8413" y="-69.8" font-family="Times,serif" font-size="14.00" fill="var(--fg)">valor</text>
<polygon fill="none" stroke="var(--fg)" points="0,-44 0,-64 60,-64 60,-44 8,-44"/>
<text text-anchor="start" x="2.2241" y="-49.8" font-family="Times,serif" font-size="14.00" fill="var(--fg)">puntero</text>
<polygon fill="none" stroke="var(--fg)" points="60,-44 60,-64 96,-64 96,-44 60,-44"/>
<polygon fill="none" stroke="var(--fg)" points="0,-24 0,-44 60,-44 60,-24 8,-24"/>
<text text-anchor="start" x="2.4482" y="-29.8" font-family="Times,serif" font-size="14.00" fill="var(--fg)">longitud</text>
<polygon fill="none" stroke="var(--fg)" points="60,-24 60,-44 96,-44 96,-24 60,-24"/>
<text text-anchor="start" x="74.5" y="-29.8" font-family="Times,serif" font-size="14.00" fill="var(--fg)">4</text>
<polygon fill="none" stroke="var(--fg)" points="0,-4 0,-24 60,-24 60,-4 8,-4"/>
<text text-anchor="start" x="2.6826" y="-9.8" font-family="Times,serif" font-size="14.00" fill="var(--fg)">capacidad</text>
<polygon fill="none" stroke="var(--fg)" points="60,-4 60,-24 96,-24 96,-4 60,-4"/>
<text text-anchor="start" x="74.5" y="-9.8" font-family="Times,serif" font-size="14.00" fill="var(--fg)">4</text>
</g>
<!-- table3&#45;&gt;table1 -->
<g  class="edge">
<path fill="none" stroke="var(--fg)" d="M78,-54C78,-54 101.9982,-107.088 130.4405,-115.7977"/>
<polygon fill="var(--fg)" stroke="var(--fg)" points="130.1553,-119.2885 140.5,-117 130.986,-112.3379 130.1553,-119.2885"/>
</g>
</g>
</svg>
