<svg
 viewBox="0.00 0.00 1000.00 1200.00" xmlns="http://www.w3.org/2000/svg" xmlns:xlink="http://www.w3.org/1999/xlink">
<g  class="graph" transform="scale(4.1667 4.1667) rotate(0) translate(4 298)">
<title>Cuatro tablas: dos tablas que representan los datos de la pila para s1 y s2, y cada una apunta a su propia copia de datos de cadena en el heap.</title>
<desc >Cuatro tablas: dos tablas que representan los datos de la pila para s1 y s2, y cada una apunta a su propia copia de datos de cadena en el heap.</desc>
<polygon fill="transparent" stroke="transparent" points="-4,4 -4,-298 233,-298 233,4 -4,4"/>
<!-- table0 -->
<g  class="node">
<polyline fill="none" stroke="var(--fg)" points="0,-124 96,-124 "/>
<text text-anchor="start" x="45.7759" y="-129.8" font-family="Times,serif" font-size="14.00" fill="var(--fg)">s2</text>
<polygon fill="none" stroke="var(--fg)" points="0,-104 0,-124 60,-124 60,-104 8,-104"/>
<text text-anchor="start" x="8.8413" y="-109.8" font-family="Times,serif" font-size="14.00" fill="var(--fg)">nombre</text>
<polygon fill="none" stroke="var(--fg)" points="60,-104 60,-124 96,-124 96,-104 60,-104"/>
<text text-anchor="start" x="62.8413" y="-109.8" font-family="Times,serif" font-size="14.00" fill="var(--fg)">valor</text>
<polygon fill="none" stroke="var(--fg)" points="0,-84 0,-104 60,-104 60,-84 8,-84"/>
<text text-anchor="start" x="2.2241" y="-89.8" font-family="Times,serif" font-size="14.00" fill="var(--fg)">puntero</text>
<polygon fill="none" stroke="var(--fg)" points="60,-84 60,-104 96,-104 96,-84 60,-84"/>
<polygon fill="none" stroke="var(--fg)" points="0,-64 0,-84 60,-84 60,-64 8,-64"/>
<text text-anchor="start" x="2.4482" y="-69.8" font-family="Times,serif" font-size="14.00" fill="var(--fg)">longitud</text>
<polygon fill="none" stroke="var(--fg)" points="60,-64 60,-84 96,-84 96,-64 60,-64"/>
<text text-anchor="start" x="74.5" y="-69.8" font-family="Times,serif" font-size="14.00" fill="var(--fg)">4</text>
<polygon fill="none" stroke="var(--fg)" points="0,-44 0,-64 60,-64 60,-44 8,-44"/>
<text text-anchor="start" x="2.6826" y="-49.8" font-family="Times,serif" font-size="14.00" fill="var(--fg)">capacidad</text>
<polygon fill="none" stroke="var(--fg)" points="60,-44 60,-64 96,-64 96,-44 60,-44"/>
<text text-anchor="start" x="74.5" y="-49.8" font-family="Times,serif" font-size="14.00" fill="var(--fg)">4</text>
</g>
<!-- table1 -->
<g  class="node">
<polygon fill="none" stroke="var(--fg)" points="140.5,-104 140.5,-124 185.5,-124 185.5,-104 148.5,-104"/>
<text text-anchor="start" x="145.4482" y="-109.8" font-family="Times,serif" font-size="14.00" fill="var(--fg)">indice</text>
<polygon fill="none" stroke="var(--fg)" points="185.5,-104 185.5,-124 221.5,-124 221.5,-104 185.5,-104"/>
<text text-anchor="start" x="188.3413" y="-109.8" font-family="Times,serif" font-size="14.00" fill="var(--fg)">valor</text>
<polygon fill="none" stroke="var(--fg)" points="140.5,-84 140.5,-104 185.5,-104 185.5,-84 148.5,-84"/>
<text text-anchor="start" x="158.5" y="-89.8" font-family="Times,serif" font-size="14.00" fill="var(--fg)">0</text>
<polygon fill="none" stroke="var(--fg)" points="185.5,-84 185.5,-104 221.5,-104 221.5,-84 185.5,-84"/>
<text text-anchor="start" x="200" y="-89.8" font-family="Times,serif" font-size="14.00" fill="var(--fg)">h</text>
<polygon fill="none" stroke="var(--fg)" points="140.5,-64 140.5,-84 185.5,-84 185.5,-64 148.5,-64"/>
<text text-anchor="start" x="158.5" y="-69.8" font-family="Times,serif" font-size="14.00" fill="var(--fg)">1</text>
<polygon fill="none" stroke="var(--fg)" points="185.5,-64 185.5,-84 221.5,-84 221.5,-64 185.5,-64"/>
<text text-anchor="start" x="200.3931" y="-69.8" font-family="Times,serif" font-size="14.00" fill="var(--fg)">o</text>
<polygon fill="none" stroke="var(--fg)" points="140.5,-44 140.5,-64 185.5,-64 185.5,-44 148.5,-44"/>
<text text-anchor="start" x="158.5" y="-49.8" font-family="Times,serif" font-size="14.00" fill="var(--fg)">2</text>
<polygon fill="none" stroke="var(--fg)" points="185.5,-44 185.5,-64 221.5,-64 221.5,-44 185.5,-44"/>
<text text-anchor="start" x="201.5552" y="-49.8" font-family="Times,serif" font-size="14.00" fill="var(--fg)">l</text>
<polygon fill="none" stroke="var(--fg)" points="140.5,-24 140.5,-44 185.5,-44 185.5,-24 148.5,-24"/>
<text text-anchor="start" x="158.5" y="-29.8" font-family="Times,serif" font-size="14.00" fill="var(--fg)">3</text>
<polygon fill="none" stroke="var(--fg)" points="185.5,-24 185.5,-44 221.5,-44 221.5,-24 185.5,-24"/>
<text text-anchor="start" x="201.5552" y="-29.8" font-family="Times,serif" font-size="14.00" fill="var(--fg)">a</text>
</g>
<!-- table0&#45;&gt;table1 -->
<g  class="edge">
<path fill="none" stroke="var(--fg)" d="M78,-94C78,-94 109.3406,-94 130.3797,-94"/>
<polygon fill="var(--fg)" stroke="var(--fg)" points="130.5,-97.5001 140.5,-94 130.5,-90.5001 130.5,-97.5001"/>
</g>
<!-- table3 -->
<g  class="node">
<polyline fill="none" stroke="var(--fg)" points="0,-270 96,-270 "/>
<text text-anchor="start" x="45.7759" y="-275.8" font-family="Times,serif" font-size="14.00" fill="var(--fg)">s1</text>
<polygon fill="none" stroke="var(--fg)" points="0,-250 0,-270 60,-270 60,-250 8,-250"/>
<text text-anchor="start" x="8.8413" y="-255.8" font-family="Times,serif" font-size="14.00" fill="var(--fg)">nombre</text>
<polygon fill="none" stroke="var(--fg)" points="60,-250 60,-270 96,-270 96,-250 60,-250"/>
<text text-anchor="start" x="62.8413" y="-255.8" font-family="Times,serif" font-size="14.00" fill="var(--fg)">valor</text>
<polygon fill="none" stroke="var(--fg)" points="0,-230 0,-250 60,-250 60,-230 8,-230"/>
<text text-anchor="start" x="2.2241" y="-235.8" font-family="Times,serif" font-size="14.00" fill="var(--fg)">puntero</text>
<polygon fill="none" stroke="var(--fg)" points="60,-230 60,-250 96,-250 96,-230 60,-230"/>
<polygon fill="none" stroke="var(--fg)" points="0,-210 0,-230 60,-230 60,-210 8,-210"/>
<text text-anchor="start" x="2.4482" y="-215.8" font-family="Times,serif" font-size="14.00" fill="var(--fg)">longitud</text>
<polygon fill="none" stroke="var(--fg)" points="60,-210 60,-230 96,-230 96,-210 60,-210"/>
<text text-anchor="start" x="74.5" y="-215.8" font-family="Times,serif" font-size="14.00" fill="var(--fg)">4</text>
<polygon fill="none" stroke="var(--fg)" points="0,-190 0,-210 60,-210 60,-190 8,-190"/>
<text text-anchor="start" x="2.6826" y="-195.8" font-family="Times,serif" font-size="14.00" fill="var(--fg)">capacidad</text>
<polygon fill="none" stroke="var(--fg)" points="60,-190 60,-210 96,-210 96,-190 60,-190"/>
<text text-anchor="start" x="74.5" y="-195.8" font-family="Times,serif" font-size="14.00" fill="var(--fg)">4</text>
</g>
<!-- table4 -->
<g  class="node">
<polygon fill="none" stroke="var(--fg)" points="140.5,-250 140.5,-270 185.5,-270 185.5,-250 148.5,-250"/>
<text text-anchor="start" x="145.4482" y="-255.8" font-family="Times,serif" font-size="14.00" fill="var(--fg)">indice</text>
<polygon fill="none" stroke="var(--fg)" points="185.5,-250 185.5,-270 221.5,-270 221.5,-250 185.5,-250"/>
<text text-anchor="start" x="188.3413" y="-255.8" font-family="Times,serif" font-size="14.00" fill="var(--fg)">valor</text>
<polygon fill="none" stroke="var(--fg)" points="140.5,-230 140.5,-250 185.5,-250 185.5,-230 148.5,-230"/>
<text text-anchor="start" x="158.5" y="-235.8" font-family="Times,serif" font-size="14.00" fill="var(--fg)">0</text>
<polygon fill="none" stroke="var(--fg)" points="185.5,-230 185.5,-250 221.5,-250 221.5,-230 185.5,-230"/>
<text text-anchor="start" x="200" y="-235.8" font-family="Times,serif" font-size="14.00" fill="var(--fg)">h</text>
<polygon fill="none" stroke="var(--fg)" points="140.5,-210 140.5,-230 185.5,-230 185.5,-210 148.5,-210"/>
<text text-anchor="start" x="158.5" y="-215.8" font-family="Times,serif" font-size="14.00" fill="var(--fg)">1</text>
<polygon fill="none" stroke="var(--fg)" points="185.5,-210 185.5,-230 221.5,-230 221.5,-210 185.5,-210"/>
<text text-anchor="start" x="200.3931" y="-215.8" font-family="Times,serif" font-size="14.00" fill="var(--fg)">o</text>
<polygon fill="none" stroke="var(--fg)" points="140.5,-190 140.5,-210 185.5,-210 185.5,-190 148.5,-190"/>
<text text-anchor="start" x="158.5" y="-195.8" font-family="Times,serif" font-size="14.00" fill="var(--fg)">2</text>
<polygon fill="none" stroke="var(--fg)" points="185.5,-190 185.5,-210 221.5,-210 221.5,-190 185.5,-190"/>
<text text-anchor="start" x="201.5552" y="-195.8" font-family="Times,serif" font-size="14.00" fill="var(--fg)">l</text>
<polygon fill="none" stroke="var(--fg)" points="140.5,-170 140.5,-190 185.5,-190 185.5,-170 148.5,-170"/>
<text text-anchor="start" x="158.5" y="-175.8" font-family="Times,serif" font-size="14.00" fill="var(--fg)">3</text>
<polygon fill="none" stroke="var(--fg)" points="185.5,-170 185.5,-190 221.5,-190 221.5,-170 185.5,-170"/>
<text text-anchor="start" x="201.5552" y="-175.8" font-family="Times,serif" font-size="14.00" fill="var(--fg)">a</text>
</g>
<!-- table3&#45;&gt;table4 -->
<g  class="edge">
<path fill="none" stroke="var(--fg)" d="M78,-240C78,-240 109.3406,-240 130.3797,-240"/>
<polygon fill="var(--fg)" stroke="var(--fg)" points="130.5,-243.5001 140.5,-240 130.5,-236.5001 130.5,-243.5001"/>
</g>
</g>
</svg>
